<svg id="Capa_1" enable-background="new 0 0 505.238 505.238" height="512" viewBox="0 0 505.238 505.238" width="512" xmlns="http://www.w3.org/2000/svg"><g><path d="m236.708 267.256h-106.95c-5.51 0-10 4.49-10 10 0 78.717-.138 74.935.25 75.08 44.934 15.569 90.05 12.982 126.7-1.37v-73.71c0-5.511-4.49-10-10-10z"/><path d="m129.778 163.775c39.513 8.035 76.721-6.57 91.94-26.82-28.687-38.781-82.743-22.149-91.94 26.82z"/><path d="m130.758 194.395c5.63 21.88 21.52 38.68 41.18 42.86 35.996 7.635 67.341-28.228 61.95-69.55-27.055 23.851-67.628 32.055-103.13 26.69z"/><path d="m380.718 311.365-24.04 24.04c-38.31-38.3-36.64-36.47-36.64-36.64 47.87-57.733 56.661-135.528 22.08-201.92-35.476-68.068-108.368-103.497-180.24-95.74-81.642 8.927-143.26 69.563-158.22 143.9-.148.643-.948 4.849-1.1 5.91-12.117 72.127 19.147 146.667 86.77 186.98.614.352.43 7.082.43-60.64 0-18.78 13-34.57 30.47-38.85-48.005-57.956-11.261-152.92 61.29-152.92 72.06 0 109.157 94.115 61.78 152.32 18.94 3.15 33.41 19.64 33.41 39.45v58.82c5-3.099 17.705-11.796 21.61-15.67.923-.77-1.493-2.422 37.15 36.21l-24.05 24.04 124.53 124.53 69.29-69.29z"/></g></svg>